<svg width="220" height="220" viewBox="0 0 220 220" fill="none" xmlns="http://www.w3.org/2000/svg">
  <defs>
    <radialGradient id="sealGlow" cx="0" cy="0" r="1" gradientUnits="userSpaceOnUse" gradientTransform="translate(110 110) rotate(90) scale(110)">
      <stop stop-color="#FFE38A" />
      <stop offset="1" stop-color="#FFBE2F" />
    </radialGradient>
  </defs>

  <circle cx="110" cy="110" r="98" fill="#220B0C" stroke="#FFF1C5" stroke-width="6" />
  <circle cx="110" cy="110" r="86" fill="url(#sealGlow)" fill-opacity="0.14" stroke="#FFBE2F" stroke-width="3" stroke-dasharray="6 8" />
  <path d="M110 26L118 52L146 46L136 72L160 86L134 92L138 120L116 104L110 132L104 104L82 120L86 92L60 86L84 72L74 46L102 52L110 26Z" fill="#FFBE2F" />
  <path d="M70 154L94 134" stroke="#FFF5DC" stroke-width="10" stroke-linecap="round" />
  <path d="M150 154L126 134" stroke="#FFF5DC" stroke-width="10" stroke-linecap="round" />
  <path d="M62 154L88 130L94 136L70 162Z" fill="#9B673F" />
  <path d="M158 154L132 130L126 136L150 162Z" fill="#9B673F" />
  <circle cx="110" cy="98" r="18" fill="#220B0C" stroke="#FFF5DC" stroke-width="4" />
  <path d="M96 116L124 116L110 142L96 116Z" fill="#FFF5DC" />
  <text x="110" y="182" fill="#FFF5DC" font-family="Arial Black, Arial, sans-serif" font-size="20" text-anchor="middle" letter-spacing="2">
    CHAMPION
  </text>
</svg>
